<svg xmlns="http://www.w3.org/2000/svg" width="256" height="256"><path fill-opacity=".016" d="M0 128.004v128.004l128.25-.254 128.25-.254.254-127.75L257.008 0H0v128.004m.485.496c0 70.4.119 99.053.265 63.672.146-35.38.146-92.98 0-128C.604 29.153.485 58.1.485 128.5" fill="#1976D2" fill-rule="evenodd"/><path fill-opacity=".49" d="M108 1c0 .55-.908 1-2.018 1-1.11 0-5.452.92-9.648 2.044C72.501 10.431 53.013 21.933 35.9 39.711 19.591 56.655 8.288 77.38 3.389 99.322c-.882 3.948-2.005 7.605-2.496 8.128C-.371 108.795-.268 149 1 149c.55 0 1 .908 1 2.018 0 3.11 3.761 16.427 7.025 24.88 12.708 32.901 42.025 61.355 75.66 73.432 16.693 5.994 23.442 6.908 47.124 6.383 23.391-.519 27.07-1.165 44.093-7.74 32.274-12.466 60.392-41.017 72.816-73.938 6.419-17.011 7.643-24.091 8.014-46.368.236-14.24.017-20.63-.693-20.191-.591.365-1.039-.253-1.039-1.435 0-1.143-.92-5.511-2.044-9.707-6.387-23.833-17.889-43.321-35.667-60.434-16.944-16.309-37.669-27.612-59.611-32.511-3.948-.882-7.605-2.005-8.128-2.496C148.205-.371 108-.268 108 1M.423 128.5c.001 11.55.147 16.138.324 10.196.177-5.943.176-15.393-.002-21-.178-5.608-.323-.746-.322 10.804" fill="#1976D2" fill-rule="evenodd"/><path fill-opacity=".578" d="M115 .886c0 .488-2.138 1.177-4.75 1.531C55.617 9.827 9.453 55.807 2.49 109.75 2.117 112.638 1.405 115 .906 115 .408 115 0 121.075 0 128.5S.399 142 .886 142c.488 0 1.177 2.137 1.531 4.75 6.262 46.169 41.285 88.418 84.826 102.327 20.042 6.403 43.115 8.754 57.958 5.906 2.914-.559 7.774-1.502 10.799-2.094 21.939-4.299 45.218-17.107 62.5-34.389 19.683-19.683 32.469-45.111 36.085-71.762.355-2.62 1.044-5.009 1.53-5.309.487-.301.885-6.622.885-14.047 0-7.61-.387-13.261-.888-12.951-.488.302-1.177-1.584-1.531-4.191C247.133 55.307 201.691 9.868 146.75 2.417 144.137 2.063 142 1.374 142 .886 142 .399 135.925 0 128.5 0S115 .399 115 .886m3.2 75.664c-11.616 3.652-22.671 11.558-27.014 19.316-2.258 4.035-2.266 4.134-.309 4.134 1.103 0 2.284-.452 2.626-1.005.342-.553 3.23-2.777 6.419-4.942 12.331-8.374 25.779-10.219 40.479-5.553 4.332 1.375 8.873 2.5 10.09 2.5 3.542 0 8.967-4.203 9.319-7.22.37-3.164-2.051-5.04-9.37-7.26-6.258-1.898-26.168-1.88-32.24.03m-21.02 27.119c-1.827.907-4.358 3.04-5.627 4.74-4.308 5.775-5.028 9.934-4.95 28.591.067 16.187.267 18.052 2.67 24.853 4.665 13.203 9.081 17.819 22.024 23.022 1.538.619 6.606 1.125 11.261 1.125 6.519 0 9.493-.484 12.941-2.105 5.102-2.398 10.501-8.017 10.501-10.93 0-2.403.184-2.403-5.141.013-5.012 2.274-14.927 2.681-21.001.861-9.965-2.985-16.911-13.901-18.782-29.518-.883-7.368-.793-11.904.456-23 2.177-19.348 2.162-18.724.468-19.03-.825-.15-2.994.47-4.82 1.378M.395 128.5c.001 7.7.158 10.718.348 6.706.191-4.011.189-10.311-.002-14-.192-3.688-.348-.406-.346 7.294m123.355 2.58c-.963.561-2.458 2.388-3.322 4.06-2.899 5.604-2.2 5.86 16.018 5.86h16.508l1.661 2.535c1.385 2.115 1.578 4.408 1.163 13.827-.441 9.977-.857 12.039-3.573 17.697-1.691 3.523-2.893 6.586-2.672 6.808.764.763 6.275-2.034 8.271-4.197 3.878-4.205 6.26-9.704 9.17-21.17 1.325-5.223 1.319-22.084-.009-24.566-.972-1.816-2.271-1.932-21.25-1.904-11.862.018-20.938.452-21.965 1.05" fill="#1976D2" fill-rule="evenodd"/><path fill-opacity=".5" d="M119 1.583c-1.375.763-4.075 1.394-6 1.402-3.245.014-11.648 1.633-20 3.854-3.304.878-4.717 1.334-9.5 3.067-6.549 2.371-24.032 11.886-30 16.327-15.337 11.413-32.788 32.062-38.517 45.576a609.04 609.04 0 01-3.293 7.5C10.417 82.164 8.789 86.525 8.072 89c-.717 2.475-1.668 5.625-2.112 7-.875 2.703-2.594 12.62-3.511 20.25-.315 2.612-.994 4.75-1.51 4.75-1.348 0-1.199 15.747.153 16.197.6.2 1.449 3.5 1.886 7.334 1.156 10.127 3.08 18.164 6.938 28.969 2.29 6.415 11.861 24.011 16.317 30 11.487 15.437 32.144 32.857 45.752 38.583 1.367.576 4.067 1.738 6 2.584 6.097 2.666 7.415 3.171 11.515 4.406 2.2.663 5.125 1.559 6.5 1.991 1.375.432 5.425 1.252 9 1.823s9.684 1.563 13.576 2.203c12.922 2.127 35.938-1.228 54.924-8.006 6.415-2.29 24.011-11.861 30-16.317 15.337-11.413 32.788-32.062 38.517-45.576a609.04 609.04 0 013.293-7.5c1.273-2.855 2.901-7.216 3.618-9.691.717-2.475 1.668-5.625 2.112-7 .875-2.703 2.594-12.62 3.511-20.25.315-2.613.994-4.75 1.51-4.75 1.348 0 1.199-15.747-.153-16.197-.6-.2-1.449-3.5-1.886-7.334-1.156-10.127-3.08-18.164-6.938-28.969-2.29-6.415-11.861-24.011-16.317-30-11.487-15.437-32.144-32.857-45.752-38.583a587.166 587.166 0 01-6-2.584c-6.097-2.666-7.415-3.171-11.515-4.406-2.2-.663-5.125-1.559-6.5-1.991-2.738-.86-12.782-2.59-20.25-3.487-2.613-.315-4.75-.994-4.75-1.51 0-1.463-14.171-.925-17 .644m6 72.008c-14.742 2.688-27.15 9.954-33.998 19.905-5.765 8.381-2.498 10.803 5.977 4.431 7.107-5.344 12.233-7.915 19.021-9.539 8.097-1.938 12.815-1.684 22.137 1.193 12.877 3.975 13.755 3.997 18.507.475 7.724-5.728 6.582-10.331-3.501-14.104-5.494-2.055-22.153-3.453-28.143-2.361m-25.97 27.576c-4.517 1.703-9.246 6.066-11.08 10.225-2.992 6.78-4.478 24.173-3.033 35.505 2.072 16.263 5.176 24.196 12.223 31.243 7.281 7.281 19.356 10.903 31.354 9.404 6.426-.803 13.742-5.236 17.229-10.442 2.561-3.822 2.607-4.032 1.325-6.059-.791-1.25-1.861-1.126-7.517.871-15.311 5.405-29.057-.938-34.54-15.938-3.503-9.583-3.594-23.625-.321-49.639.616-4.897-1.418-6.761-5.64-5.17M.349 129c0 4.675.173 6.588.383 4.25.211-2.338.211-6.162 0-8.5-.21-2.338-.383-.425-.383 4.25m123.318.615c-3.453 1.872-7.069 9.196-5.483 11.106.779.939 5.23 1.279 16.747 1.279 11.487 0 16.175.357 17.509 1.332 3.923 2.869 2.785 22.6-1.85 32.074-3.126 6.389-3.212 7.594-.54 7.594 10.711 0 19.022-17.313 19.165-39.925.1-15.777 1.182-15.087-23.576-15.035-15.253.032-19.714.352-21.972 1.575" fill="#1976D2" fill-rule="evenodd"/></svg>